<svg xmlns="http://www.w3.org/2000/svg" version="1.1" xmlns:xlink="http://www.w3.org/1999/xlink" xmlns:svgjs="http://svgjs.com/svgjs" width="1440" height="560" preserveAspectRatio="none" viewBox="0 0 1440 560">
    <g mask="url(&quot;#SvgjsMask1002&quot;)" fill="none">
        <rect width="1440" height="560" x="0" y="0" fill="rgba(239, 239, 239, 1)"></rect>
        <path d="M0,435.683C80.491,435.68,156.31,386.801,210.101,326.923C258.128,273.461,256.237,195.383,277.532,126.744C295.707,68.162,326.531,14.453,326.073,-46.882C325.57,-114.242,320.463,-188.592,274.807,-238.122C229.407,-287.374,153.144,-283.839,89.215,-303.838C23.91,-324.268,-37.494,-369.267,-104.788,-356.874C-174.044,-344.12,-231.382,-293.433,-273.55,-237.033C-314.032,-182.888,-321.278,-114.327,-335.541,-48.244C-350.914,22.983,-383.318,95.397,-360.214,164.504C-336.355,235.868,-270.226,281.68,-210.11,326.937C-145.805,375.348,-80.491,435.686,0,435.683" fill="#e3e3e3"></path>
        <path d="M1440 1003.669C1532.025 999.721 1627.503 1021.245 1709.662 979.602 1795.612 936.038 1856.3980000000001 855.981 1900.458 770.284 1945.9859999999999 681.733 1977.801 583.268 1964.143 484.64 1950.451 385.76800000000003 1900.673 291.523 1825.126 226.28699999999998 1754.133 164.983 1656.4 152.935 1563.669 138.822 1481.438 126.30700000000002 1401.638 136.765 1319.413 149.32 1224.369 163.83300000000003 1107.8020000000001 144.93099999999998 1045.285 217.97699999999998 982.7339999999999 291.062 1039.368 405.40700000000004 1019.652 499.563 997.973 603.091 896.903 693.3389999999999 924.353 795.488 951.773 897.527 1057.07 963.842 1155.045 1003.398 1244.943 1039.692 1343.141 1007.825 1440 1003.669" fill="#fbfbfb"></path>
    </g>
    <defs>
        <mask id="SvgjsMask1002">
            <rect width="1440" height="560" fill="#ffffff"></rect>
        </mask>
    </defs>
</svg>